<svg data-v-423bf9ae="" xmlns="http://www.w3.org/2000/svg" viewBox="0 0 363 90" class="iconLeft"><!----><!----><!----><g data-v-423bf9ae="" id="5fda3139-c172-4cec-99e5-524b5e2f3ff7" fill="white" transform="matrix(6.564551175737441,0,0,6.564551175737441,103.17286033453277,6.072210187881133)"><path d="M8.67 1.36L8.67 1.36L8.67 10.50L6.09 10.50L2.90 3.81L2.90 10.50L1.04 10.50L1.04 1.36L3.61 1.36L6.80 8.05L6.80 1.36L8.67 1.36ZM18.37 1.36L18.37 1.36L18.37 10.50L15.79 10.50L12.60 3.81L12.60 10.50L10.74 10.50L10.74 1.36L13.31 1.36L16.51 8.05L16.51 1.36L18.37 1.36ZM30.49 1.36L30.49 1.36L32.41 1.36L30.24 10.50L27.85 10.50L25.97 3.35L24.11 10.50L21.71 10.50L19.54 1.36L21.48 1.36L22.85 8.40L24.75 1.36L27.20 1.36L29.11 8.39L30.49 1.36ZM39.42 1.36L39.42 2.88L35.21 8.97L39.49 8.97L39.49 10.50L33.05 10.50L33.07 8.97L37.25 2.88L33.35 2.88L33.35 1.36L39.42 1.36Z"></path></g><!----><g data-v-423bf9ae="" id="6c3fe3b8-6bc1-4052-87df-7b545e937086" transform="matrix(2.8125,0,0,2.8125,0,0)" stroke="none" fill="white"><path d="M16 32c8.837 0 16-7.163 16-16S24.837 0 16 0 0 7.163 0 16s7.163 16 16 16zM14.817 6.421h2v8.886h8.887v2H14.817V6.421zm-5.959.437h2v14.283h14.283v2H8.858V6.858z"></path></g><!----></svg>