<?xml version="1.0" encoding="UTF-8"?>
<svg xmlns="http://www.w3.org/2000/svg" xmlns:xlink="http://www.w3.org/1999/xlink" width="500pt" height="500pt" viewBox="0 0 500 500" version="1.1">
<g id="surface21584734">
<path style=" stroke:none;fill-rule:nonzero;fill:rgb(100%,100%,100%);fill-opacity:1;" d="M 500.625 104.375 C 482.148438 112.578125 462.34375 118.085938 441.523438 120.585938 C 462.773438 107.851562 479.101562 87.695312 486.757812 63.710938 C 466.914062 75.46875 444.84375 84.023438 421.445312 88.632812 C 402.695312 68.632812 375.976562 56.171875 346.40625 56.171875 C 289.609375 56.171875 243.554688 102.1875 243.554688 158.984375 C 243.554688 167.03125 244.492188 174.882812 246.25 182.421875 C 160.78125 178.125 85.039062 137.1875 34.296875 74.960938 C 25.429688 90.195312 20.390625 107.851562 20.390625 126.679688 C 20.390625 162.34375 38.515625 193.828125 66.132812 212.304688 C 49.257812 211.757812 33.398438 207.109375 19.53125 199.414062 C 19.53125 199.84375 19.53125 200.273438 19.53125 200.703125 C 19.53125 250.546875 55 292.070312 101.992188 301.5625 C 93.398438 303.90625 84.296875 305.15625 74.921875 305.15625 C 68.28125 305.15625 61.835938 304.53125 55.546875 303.28125 C 68.671875 344.101562 106.640625 373.90625 151.601562 374.726562 C 116.445312 402.304688 72.109375 418.710938 23.90625 418.710938 C 15.585938 418.710938 7.421875 418.242188 -0.585938 417.265625 C 44.882812 446.484375 98.945312 463.476562 157.03125 463.476562 C 346.171875 463.476562 449.609375 306.796875 449.609375 170.9375 C 449.609375 166.484375 449.492188 161.992188 449.335938 157.617188 C 469.414062 143.125 486.835938 125 500.625 104.375 Z M 500.625 104.375 "/>
</g>
</svg>
